<svg xmlns="http://www.w3.org/2000/svg" viewBox="0 0 512 512" xml:space="preserve"><path fill="#6E83B7" d="M388 41h114v310H388z"/><path fill="#FFD3B3" d="M104.5 41C85.446 41 70 56.446 70 75.5c0 19.054 15.446 34.5 34.5 34.5h-30C55.446 110 40 125.446 40 144.5c0 19.054 15.446 34.5 34.5 34.5h-30C25.446 179 10 194.446 10 213.5c0 19.054 15.446 34.5 34.5 34.5h30C55.446 248 40 263.446 40 282.5c0 19.054 15.446 34.5 34.5 34.5H216v119c0 19.33 15.67 35 35 35s35-15.67 35-35v-38.224a54 54 0 0 1 20.041-41.986L354 317h34V41H104.5z"/><circle fill="#FFE352" cx="445" cy="295" r="27"/></svg>